<svg xmlns="http://www.w3.org/2000/svg" width="640" height="195.947" viewBox="0 0 640 195.947">
  <title>naps-logo-white</title>
  <g>
    <path d="M97.974,0a97.973,97.973,0,1,0,97.974,97.973A97.974,97.974,0,0,0,97.974,0Zm0,182.567a84.3,84.3,0,0,1-24.859-3.732c.011-3.645.011-7.292.127-10.937.178-5.255.6-10.488.913-15.72.022-.6.067-1.225.111-1.826.29-.2.579-.4.846-.6.156.646.312,1.269.557,2.4.891-1.024,1.492-1.715,2.115-2.427.245,1.136.468,2.093.846,3.83.891-1.581,1.4-2.494,2.182-3.9.2,2.049.312,3.429.445,4.81.245.022.468.022.69.022.623-1.269,1.247-2.583,1.915-4.008.668.913,1.18,1.625,1.759,2.427.713-.757,1.269-1.314,1.826-1.893,1.559,2.739,3.028-.312,4.676.445.289.134,1.091-.69,1.67-.69-.022,0-.022-.534-.045-.534l-.089-.334.134-.089c.646-.423,1.314-.913,1.959-1.336a4.209,4.209,0,0,0-.245-.557c.111.156.2.289.312.468a.082.082,0,0,1-.067.022l.022.045c.935-.713,1.87-1.4,2.962-2.182a6.908,6.908,0,0,0,1.6,1.87c.334.178,1.225-.579,1.87-.891.356.6.713,1.247.779,1.381,1.2-.289,1.982-.49,2.739-.69.846-.2,1.692-.4,2.516-.6a6.408,6.408,0,0,1,2.249-.445c2.249.289,4.52,1.6,6.591-.6.156-.2,1.047.468,1.47.334a18.735,18.735,0,0,0,4.208-1.559c.445-.223.468-1.247.646-1.848.512.245,1.18.579,2.115,1.047.134-1.314.223-2.293.379-3.763.779,1.225,1.291,1.982,2.093,3.206.713-1.737,1.069-2.583,1.625-3.919,1.982,4.3,5.611,4.654,9.218,5.366-.045-.846-.067-1.559-.111-2.4.846.6,1.447,1.047,2.093,1.536,1.692-3.162,3.028-6.279,4.876-9.04a46.606,46.606,0,0,1,13.984-14.162l.022-.022c.423.2.757.267.868-.067.045-.134-.267-.111-.8.022a42.989,42.989,0,0,0,4.1-3.184c7.511-6.106,12.906-14.03,18.655-21.659.013.6.047,1.191.047,1.792A84.69,84.69,0,0,1,97.974,182.567ZM68.611,82.126a78.881,78.881,0,0,1,.223,9.731c-.111,5.433-.245,10.822-.557,16.255l-.289,9.731c-.111,1.047-.245,2.115-.379,3.184-1.447-.156-2.872-.245-4.3-.267a40.714,40.714,0,0,1-12.336-2.293,65.474,65.474,0,0,1-9.263-4.03,18.879,18.879,0,0,1-7.348-6.346,6.254,6.254,0,0,0-1.291-1.47,1.869,1.869,0,0,0-1.336-.289c-.557.111-.668.623-.579,1.18a2.023,2.023,0,0,1-.69,2.026,1.3,1.3,0,0,0-.245,1.492,12.917,12.917,0,0,1,.579,3.518c-.089,2.494.334,4.765,2.249,6.68a3.458,3.458,0,0,0-.6.512c-4.476-1.113-8.951-2.293-13.427-3.407-1.216-.3-2.327-.661-3.393-1.04A84.246,84.246,0,0,1,26.085,53.453a.84.84,0,0,0,.664.1,52.948,52.948,0,0,0,6.48-3.184c1.4-.913,2.449-1.959,3.607.022-.713.067-1.447.156-2.249.2.356.379.646.646.957,1-2,.468-3.986.913-5.967,1.4.334.245.6.445.868.668a16.709,16.709,0,0,1-3.273,1.113c-1.492.156-1.6.957-1.492,2.093.69-.045,1.358-.067,2.449-.111a18.1,18.1,0,0,0-3.5,1.269c-.579.334-1.336,1.4-1.18,1.781.935,2.071-.089,3.719-.913,5.433-.668,1.425-1.336,2.828-2,4.231.134.067.289.178.423.245.4-.245.8-.512,1.381-.913-.245,2.293-.98,4.453.356,6.413a17.357,17.357,0,0,0,.713-2.338c1.136-2.65,1-6.368,5.3-6.546.334,0,.69-.534.98-.868a16.137,16.137,0,0,1,8.127-4.565c.022-.022.022-.045.045-.067-.022,0-.067.022-.089.022a6.482,6.482,0,0,0,.379-.668l.134-.067-.089.089c-.111.2-.223.423-.334.623a5.276,5.276,0,0,0,1.4-.557,20.476,20.476,0,0,0,1.715-1.937c.156-.178.379-.356.379-.557v-.045c0-.223.356-.445.49-.668.111-.2.289-.423.423-.646.156-.223.312-.468.445-.69.156-.2.289-.4.468-.6-.134.2-.245.423-.379.646-.156.223-.289.468-.445.668-.134.223-.267.445-.4.646l-.4.668a.022.022,0,0,0-.022.022c-.111.223-.2.445-.289.668.045.332.111.641.178.973a.167.167,0,0,1-.024.018l.031.016,0-.027c.22-.178.443-.134.644-.223-.111.067-.223.156-.245.245l-.468.022v.356a4.282,4.282,0,0,1,1.247-.356H44.5c.067,0,.156-.178.223-.379a.282.282,0,0,1-.022.134c.287.31.554.6.819.931l-.011.016.051.016-.031-.033c1.069-1.334,2.113-2.645,3.224-3.912a1.751,1.751,0,0,1,1.113-.468c.111-.022.445.579.4.846-.178,1.091-.824,2.672-.69,2.717,1.982.735-.067,2.36.4,2.36h-.045c.067,0,.156.623.2.757a1.261,1.261,0,0,1-.067.4l.045.067c.312,1.358.067,2.293-1.536,2.627a5.324,5.324,0,0,0-3.83,2.605c1.136-.445,2.293-.891,3.429-1.336l.067-.111-.045.134c-.846,1.269-1.715,2.583-2.538,3.852a3.26,3.26,0,0,0,.289.2c.824-.779,1.67-1.536,2.516-2.293a1.625,1.625,0,0,1,.223.2c-1.959,2.917-3.941,5.812-5.9,8.751l.156.134a1.022,1.022,0,0,1,.156.312c.022.045-.067.111-.111.156-.156.223-.289.445-.423.668l.045-.022c-.111.379-.2.757-.312,1.136H42.28l.011.027.007-.029c.532-.087,1-.176,1.507-.243-.089.334-.156,1.046-.245,1.447.089.045.623.156.735.223.312-.4-.445-.779.757-1.158a11.929,11.929,0,0,1-.98,2.717c-1.915,3.34-1.336,6.836-.245,10.042.913,2.694,2.761,5.032,4.231,7.482a3.762,3.762,0,0,0,.935.824,5.1,5.1,0,0,0,.624-.178c-.111-1.87-.178-3.763-.423-5.633-.312-2.672-1.536-5.5-.98-7.949.423-1.937.423-3.83.757-5.745,0-.067.134-.111.289-.245.223,1.492.445,2.895.646,4.275,1.291-3.874,4.186-7.37,2.583-11.779.445,1.158.891,2.338,1.336,3.518.245-.022.512-.022.779-.022a11.308,11.308,0,0,0,.846-2.583,13.94,13.94,0,0,0-.49-2.961c.089-.022.156-.022.223-.045.579,1.069,1.136,2.093,1.692,3.14l.267-.134q-.2-1.3-.4-2.672c2.227.468,2.271.423,1.715-2.16-.022,0-.022-.022-.045-.022-.022-.045-.022-.067-.045-.111-.156-.2-.312-.423-.49-.623l.267-.134c.067.245.156.49.223.757a.308.308,0,0,1,.067.089.078.078,0,0,1,.022.045c.356.223.735.423,1.113.624.223-.757.891-1.781.624-2.227-1.024-1.715-.713-3.117.111-4.787a4.149,4.149,0,0,1,3.451-2.583c4.008-.356,6.413,2.449,5.767,6.391C68.744,72.373,68.1,77.183,68.611,82.126ZM65.56,147.568c-.045.779-.089,1.559-.134,2.316-.379,5.945-.646,11.913-1.158,17.858-.216,2.478-.492,4.968-.773,7.453a85.043,85.043,0,0,1-45.07-48.439,74.79,74.79,0,0,0,8.546,5.181,101.965,101.965,0,0,0,11.757,4.721,7.221,7.221,0,0,1,4.765,4.787c.334,1.113.8,2.2,1.247,3.318.779,1.915,2.026,3.1,4.253,3.028.935-.045,1.893.289,2.806.2,3.629-.334,6.435.623,7.727,4.364.045.134.379.178.579.245,1.158-.089,1.158-3.051,3.073-1.18.69-1.291,1.358-2.561,2.227-4.164A1.361,1.361,0,0,0,65.56,147.568ZM31.314,53.558c0,.089-.022.178-.022.267-.245-.045-.49-.111-.735-.156h-.089l.022-.022a.082.082,0,0,1,.067.022C30.8,53.625,31.069,53.58,31.314,53.558Zm7.255-15.74.042-.04a1.445,1.445,0,0,1,.163.194A1.025,1.025,0,0,0,38.568,37.818Zm19.978-10.49a.078.078,0,0,0,.045-.022c-.891-.134-1.6-.423-2.494-.579a.241.241,0,0,1,.089.111c.022-.022.045,0,.045.045.646.557,1.358,1.425,1.982,1.425h.022c.223,0,.423.4.646.579a1.277,1.277,0,0,1,.223.423.893.893,0,0,1-.067.4c.022.134.022.379.045.557-.312.178-1.247.334-.156.891,1.492.779,1.024,1.358-.178,1.87.668.579,1.358,1.136,2.026,1.715a1.727,1.727,0,0,0-.6,1.091c0,.735,1.269.891,1.759,1.4.089.134.178.245.267.379.022.045-.045.111-.089.178.98.334,1.959.646,2.939.98-.98.423-2,.846-2.984,1.269l-.045-.022.134.6.022-.045c.289.49.579,1,.846,1.492-.757.534-1.536,1.091-2.316,1.648-.2,1.069-.067,1.87,1.358,1.915a28.155,28.155,0,0,1,3.206.534c-.735.958-1.269,1.67-1.737,2.271-6.569-3.83-13-7.593-19.439-11.356,1.47,1.358,2.917,2.739,4.364,4.119a2.01,2.01,0,0,0-.2.223c-3.046-1.4-6.074-2.759-9.116-4.153A85.173,85.173,0,0,1,54.99,25.155c1.267.724,2.538,1.45,3.8,2.151Zm.579.2a2.248,2.248,0,0,0-.646-.156.1.1,0,0,1,.067-.022C58.858,27.417,59.08,27.462,59.125,27.528Zm4.431,14.5a1.544,1.544,0,0,1-.111.289c-.089-.067-.2-.156-.312-.245h-.089a.069.069,0,0,0,.022-.045c.022.022.045.022.067.045C63.266,42.046,63.422,42.046,63.556,42.024Zm1.514-3.251.022-.022.089.067ZM47.145,55.339c-.134.245-.267.468-.4.69a6.345,6.345,0,0,0-.356.668c-.022.022-.045.045-.067.045.134-.2.245-.49.379-.735C46.856,55.807,46.99,55.584,47.145,55.339ZM43.961,79.521h-.022v-.089Zm59.074-65.2a6.017,6.017,0,0,0-1.082-.844,84.7,84.7,0,0,1,80.281,77.2,38.174,38.174,0,0,1-13.868,7.232,27.121,27.121,0,0,0-5.121,2.338c-2.049,1.091-4.1,2.182-6.168,3.273a.134.134,0,0,0,.022-.089c.178-1.069.49-2.115.757-3.206A6.538,6.538,0,0,0,161.441,99a2.239,2.239,0,0,0,1.2-1.67,2.329,2.329,0,0,1,.913-1.447,6.432,6.432,0,0,0,2.249-5.544,16.1,16.1,0,0,0-.935-4.1c-.779-2.071-2.627-3.229-4.453-4.676.067-.356-5.478-.579-6.346-.312a6.683,6.683,0,0,0-3.83,2.895c-.646,1.069-1.381,1.069-2.472.913a13.486,13.486,0,0,0-3.54.067c-.846.089-1.225.8-1.291,1.648a2.152,2.152,0,0,0,2.182,2.338c.8.067,1.6.022,2.494.022a11.019,11.019,0,0,1-.111,2.16c-.289,1.158-.779,2.271-1.047,3.429a9.791,9.791,0,0,0-.312,2.895,27.485,27.485,0,0,0,.6,3.451,6.148,6.148,0,0,1-1.4-.356,13.313,13.313,0,0,0-5.656-1.447c-1.826,0-3.719-.134-5.255,1.225a4.084,4.084,0,0,1-1.737.846,3.483,3.483,0,0,0-2.427,1.737A2.406,2.406,0,0,1,128.2,104.5a10.683,10.683,0,0,0-4.5,1.358c-2.026.891-4.03,1.87-6.079,2.783-2.494,1.113-4.676,2.583-5.478,5.411a1.424,1.424,0,0,0,.111,1,2.453,2.453,0,0,0,.935.913c.913.468.846,1.091.379,2.071-1-.379-1.959-.735-2.895-1.113-1.2-.49-1.358-.468-2.338.557a1.51,1.51,0,0,1-1.937.267,3.88,3.88,0,0,0-4.409.579,4.918,4.918,0,0,1-3.362,1.024,14.271,14.271,0,0,0-3.073.334c-2.717.534-5.344,1.559-8.194,1.047a1.908,1.908,0,0,0-.49.045c-2.049.245-4.1.4-6.168.69a39.832,39.832,0,0,1-4.876.312q.3-7.081.557-14.139c.089-2.449.111-4.876.045-7.3-.089-2.449-.6-4.876-.49-7.281a126.293,126.293,0,0,0-.913-25.295c-.245-1.536-.267-2.2,1.959-2.538v.045c0-.045.067-.089.267-.134l-.178-.045c.356-.022.6-.089.935-.134-.713,1.737-.69,1.737,1.113,2.895.111.067.134.134.223.2.757.045,2.093,1.581,2.093.468V68.5l.156-.089-.022.089a.022.022,0,0,1-.022.022c.022.289.067.6.089.913a8.291,8.291,0,0,0,.846.245A4.7,4.7,0,0,0,84.041,74l.067-.089-.045.178c.646.557,1.269,1.091,1.915,1.648.111.067.223.156.356.223a.291.291,0,0,0,.312-.223c.445,1,.891,2,1.336,3.028,0-.022.022-.045.067-.089.779,1.091,1.559,3.028,2.338,3.073.69,2.227,1.447,2.071,2.026,3.117.468.868.557,2.026,1.024,2.872a3.237,3.237,0,0,0,1.648,1.581c.379.089,1.091-.735,1.514-1.314a2.64,2.64,0,0,0,.49-1.47c0-1.4-.134-2.783-.245-4.208a34.371,34.371,0,0,0-.334-3.986c-.312-1.536-.846-3.05-1.291-4.587a.078.078,0,0,0-.045-.022l.022-.045c.022,0,.022-.245.022-.245,2,1.4,3.986,3.852,5.967,3.852-.623-.045-1.225-1.536-1.937-2.561.512.2.846.468,1.158.6.111-.178.2.178.334.022a.543.543,0,0,0-.4-.334c-.089,0-.2-.646-.245-.757a1.19,1.19,0,0,1,.111-.445l-.045-.067c-.423-.4-.891-.891-1.314-1.314-.045,0-.067-.022-.111-.045-.2-.111-.423-.267-.646-.423l-.668-.468-.134-.111.156.067c.223.156.468.312.69.445.2.156.423.289.623.423.022.022.067.045.089.067l2.271.468c.134-.2.267-.445.4-.646l-.134-.534c-.2-.134-.4-.245-.6-.379-.223-.156-.445-.312-.668-.445s-.423-.289-.646-.4c-.2-.111-.4-.245-.6-.379-.022,0-.045.022-.067.022-.223-.156-.445-.312-.668-.445.245.134.468.267.69.4.022.022.022.022.045.022a1.258,1.258,0,0,0,.445-.134c.178-.045.379-.089.534-.134.6.245,1.225.468,1.826.668.312-.223.6-.468.913-.713a1.233,1.233,0,0,1-.134-.178.971.971,0,0,1,.178.156c-.022,0-.022,0-.045.022l.022.022c.957-.4,1.514-.779.49-1.826-1.269-1.336-2.36-2.828-3.54-4.231.757.445,1.514.935,2.293,1.425a2.875,2.875,0,0,1,.2-.356c-1.47-1.67-2.961-3.362-4.453-5.032a4.855,4.855,0,0,0,1.291.69c.2.045.534-.423.8-.69a.082.082,0,0,0-.022-.067c-.111-.067-.245-.134-.356-.2.089-.067.156-.134.245-.2.045.156.067.267.111.4.022.022.045.022.067.045a.078.078,0,0,1-.045.022.022.022,0,0,0,.022.022c2.36-.111,3.184,1.87,4.5,3.719.089-.935.134-1.447.2-2,1.87,1.158,4.142,1.581,5.567,3.451a1.675,1.675,0,0,0,1.136.69c1.492.134,3.006.111,4.565.156-.022-.134-.045-.423-.089-.735,1.67,3.852,6.012,5.611,7.548,9.641.022-.557.067-1.091.089-1.358.735,1,1.514,2.093,2.338,3.206a4.319,4.319,0,0,1,.2-1.069c.579-1.492,1.291-2.939.134-4.476l-.089-.067.089.022c-.668-1.959-1.336-3.919-2.049-5.878a1.482,1.482,0,0,0-.557-.557c-6.324-4.453-12.692-8.662-20.441-10.354-5.678-1.225-11.289-2.605-17.145-1.759-1.047.134-1.759-.067-1.915-1.2-.022,0-.045-.312-.067-.312l-.089-.334h.134a2.036,2.036,0,0,0,.022.356c.356.111.757.379,1.47.6-.824-1.2-1.447-2.049-2.071-2.961.757.111,1.536.245,2.293.379.022-.134.067-.245.089-.379-.512-.379-1-.779-1.514-1.18.2-1.069.445-.668.69-1.113C86,48.192,87.2,49.75,88.406,51.6c.2-.111.379-.334.6-.445-.957-1.893-2.294-3.785-1.4-6.057.668,1.559,1.314,3.051,1.982,4.609a1.505,1.505,0,0,0,.312-.045c.045-.69.089-1.425.111-2.115l.334-.067c.4,1.136.846,2.271,1.425,3.83.2-2.538.379-4.5.579-6.7.668.623,1.136,1.024,1.826,1.67.067-2.071.111-3.785.178-5.723.312.713.534,1.158.713,1.6l.334-.067c-.067-1.247-.134-2.494-.223-4.008,1.937,1.381,2.138,3.963,5.055,4.542-1.136-2.049-2.026-3.652-2.917-5.255.935.4,1.915.779,2.85,1.18.067-.111.134-.512.223-.668l2.672.334-.067-.468c-.022,0-.045-.022-.067-.022-.045-.022-.089-.067-.134-.067a.491.491,0,0,1,.178.022l.022-.379c.2.111.379-.089.579-.089h.022c.379,0,.713.289,1.047.223.134-.223.267-.2.4-.423-.022-.134-.045-.2-.067-.312-.022-.045-.022-.089-.045-.134a5.657,5.657,0,0,1-.624-.356c-.045-.156-.089-.312-.134-.512l.534-.067c.4.089.8.178,1.2.289l-.045-.045c.891.022,2,.379,2.227,0,1.225-1.982,4.52-1.492,4.52-2.182v-.045c2.227-.022,3.206-.022,4.631-.022-5.3-1.759-10.421-3.117-16.1-1.2a10.292,10.292,0,0,1-8.038-.178,21.325,21.325,0,0,1-2.494-1.692l-.267.334c.089-.111.022-.267.111-.379,0,.022-.111.022-.111.045v-.022c0-1.247-.267-1.158-1.091-.735a1.8,1.8,0,0,0-.2.223,2.187,2.187,0,0,1,.111-.356c-.178-.935-.579-.623-1.024-.245-.824-1.18-.98.312-1.492.379-.312-.445-.757-.868-.757-1.314v-.022c0-.067-.067-.111-.067-.178,0,.022.067.045.067.067v-.045a28.989,28.989,0,0,1,7.7-8.706,8.914,8.914,0,0,1,6.524-1.982c1.67.178,3.318.356,4.988.579l.022-.356a.62.62,0,0,0,.022-.223c.289-.089.534-.178.8-.245C104.972,16.35,104.037,15.3,103.035,14.324ZM75.513,27.818c-.022.045-.022.067-.045.111a2.906,2.906,0,0,0-.223.334,2.662,2.662,0,0,1,.178-.356l.089-.089c.913-1.47,1.848-2.961,2.761-4.453l.022.022c-.045-.178-.089-.379-.134-.557l.022-.022a4.283,4.283,0,0,1,.4-.69c.423-.69.824-1.381,1.247-2.049a1.679,1.679,0,0,0-.312-.245c-.623.289-1.247.579-1.848.868-.468.445-.913.891-1.381,1.336,0,.022.022.045.022.089a6.128,6.128,0,0,0-.379.646,5.3,5.3,0,0,0-.4.668l-.089.089.045-.111a6.838,6.838,0,0,0,.379-.69,6.14,6.14,0,0,0,.379-.646l.045-.045a.712.712,0,0,0-.111-.423c0-.134.045-.267.045-.4-.022-.045-.111-.089-.178-.134a4.918,4.918,0,0,0-.111-.557,1.947,1.947,0,0,0,.045-.356c0-.045-.089-.089-.134-.134a5.437,5.437,0,0,1-.134-.579,2.707,2.707,0,0,1-.223-.312.618.618,0,0,1,.111-.2c.111-.2.267-.423.4-.623.111-.223.245-.423.356-.646.134-.245.289-.49.445-.735.136-.325.283-.646.425-.969a84.473,84.473,0,0,1,18.991-2.536A15.047,15.047,0,0,1,92.9,16.261c0-.067-.022-.134-.022-.2l-.223-.134c-.312.111-1.136.245-1.447.356l-.067.067c-.045-.022-.089-.067-.134-.089-.067.089-.111.156-.178.245-.245.089-.49.178-.49.289v.089a.508.508,0,0,0,.067.245c-.868,1.269-1.737,2.761-2.605,3.919a4.849,4.849,0,0,1-.022.579H87.76a5.489,5.489,0,0,1,.045-.579c.223-1.136.445-2.538.668-3.674-.557.668-1.113,1.225-1.67,1.893-.223.579-.445,1.113-.668,1.715-.045-.334-.089-.69-.156-1.047l-.156-.067c-.29.267-.6.534-.891.824l.022-.067a5.57,5.57,0,0,1-.579.156l.045.022c-1.514,1.67-3.34,3.14-4.5,5.01a17.78,17.78,0,0,1-5.745,5.7.466.466,0,0,1-.089.134c-.022,0-.045.022-.089.022a.781.781,0,0,1-.111.178c0-.022,0-.111.022-.134s.067-.022.089-.045l.067-.067c.045-.022.067-.067.111-.089.534-.757,1.047-1.514,1.581-2.249.668-.98,1.336-1.982,2-2.939C77.005,26.816,76.27,27.328,75.513,27.818Zm6.925,18.1a2.1,2.1,0,0,0-.267-.2c.111.045.2.089.312.134.111.089.245.178.356.267Zm.2,23.091c-.045.156-.089.334-.134.512C82.416,69.345,82.149,69.167,82.639,69.011Zm5.455,9.575a.168.168,0,0,0,.022-.089v.067Zm27.366-13.6h.111V65ZM86.223,30.133a1.582,1.582,0,0,1,.312-.223,1.8,1.8,0,0,0-.022.356C86.424,30.223,86.335,30.178,86.223,30.133ZM97.023,13.5v-.1l.056,0A.178.178,0,0,0,97.023,13.5Zm-24.4,4.943A6.472,6.472,0,0,0,73,17.776c.045-.022.089-.067.156-.111.125-.216.249-.445.372-.668.247-.076.5-.14.748-.214-.372.3-.744.6-1.12.882a1.282,1.282,0,0,0-.089.156c-.134.223-.267.445-.379.668-.134.178-.267.379-.379.557C72.418,18.844,72.507,18.666,72.619,18.443Z" fill="#fff" fill-rule="evenodd"/>
    <path d="M344.534,157.992q0,3.495-15.655,3.5t-16.99-2.5l-27.813-51.967v51.8q0,3-15.406,3t-15.406-3V47.4q0-2.5,13.158-2.5a94,94,0,0,1,12.074.914q6.91.919,8.41,3.416l26.649,51.3v-52.3q0-3.157,15.49-3.162t15.49,3.162Z" fill="#fff"/>
    <path d="M439.47,161.991q-14.492,0-15.658-4.664l-5.5-21.484H391.835l-4.829,20.652q-1,5.159-15.99,5.162a55.679,55.679,0,0,1-11.826-.914q-3.832-.919-3.832-1.416l29.481-112.76q0-1.328,22.819-1.33t22.819,1.33L459.29,159.489q0,1.17-7.661,1.832T439.47,161.991ZM396,114.688h17.487l-7.494-34.477h-1Z" fill="#fff"/>
    <path d="M484.773,161.991q-15.159,0-15.158-3.334V50.733q0-5.662,5.164-5.664h29.313q24.649,0,35.559,10.161t10.91,29.478a46.783,46.783,0,0,1-10.326,29.315q-5.163,6.659-15.155,10.658t-23.319,3.995v29.813q0,2-6.245,2.751A92.592,92.592,0,0,1,484.773,161.991Zm16.988-87.942v26.316h2.165a14,14,0,0,0,9.828-3.664q4-3.667,4-10.328T515,76.881q-2.748-2.834-9.745-2.832Z" fill="#fff"/>
    <path d="M569.548,121.017a90.755,90.755,0,0,0,10.91,6.827,30.409,30.409,0,0,0,14.823,4.334q7.079,0,7.08-5.5a5.947,5.947,0,0,0-2-4.416,29.283,29.283,0,0,0-7.329-4.416q-5.332-2.5-7.994-3.913a61.493,61.493,0,0,1-7.08-4.664,27.589,27.589,0,0,1-6.745-6.745q-6.663-9.494-6.662-24.149a32.361,32.361,0,0,1,10.91-24.733q10.907-10.075,28.564-10.08a90,90,0,0,1,22.152,2.583q10.157,2.583,10.493,6.745v1q0,5.834-3.664,14.739t-5.164,9.912q-10.66-5.5-19.071-5.5t-8.41,5.994q0,3.667,6.162,6.5,1.331.667,3.832,1.832t5.745,2.751a68.362,68.362,0,0,1,7,3.995,60.55,60.55,0,0,1,8.078,6.415Q640,108.857,640,122.515q0,17.825-9.826,29.148t-30.313,11.658a89.83,89.83,0,0,1-18.071-1.665,32.468,32.468,0,0,1-14.074-6.5q-6-4.829-6-11.658a38.8,38.8,0,0,1,2.5-13.572Q566.716,123.184,569.548,121.017Z" fill="#fff"/>
  </g>
</svg>
